<?xml version="1.0" standalone="no"?>
<!DOCTYPE svg PUBLIC "-//W3C//DTD SVG 20010904//EN"
 "http://www.w3.org/TR/2001/REC-SVG-20010904/DTD/svg10.dtd">
<svg version="1.0" xmlns="http://www.w3.org/2000/svg"
 width="192.000000pt" height="192.000000pt" viewBox="0 0 192.000000 192.000000"
 preserveAspectRatio="xMidYMid meet">
<metadata>
Created by potrace 1.15, written by Peter Selinger 2001-2017
</metadata>
<g transform="translate(0.000000,192.000000) scale(0.100000,-0.100000)"
fill="#000000" stroke="none">
<path d="M90 1903 c-30 -21 -52 -43 -73 -73 -16 -23 -17 -92 -17 -870 0 -916
-3 -857 50 -910 53 -53 -6 -50 910 -50 916 0 857 -3 910 50 53 53 50 -6 50
910 0 916 3 857 -50 910 -53 53 6 50 -910 50 -778 0 -847 -1 -870 -17z m1029
-544 c17 -6 31 -16 31 -23 0 -7 -33 -98 -74 -202 -61 -157 -146 -390 -199
-543 -7 -18 -18 -36 -25 -39 -16 -6 -82 23 -82 36 0 4 31 85 68 178 38 94 104
268 147 387 43 119 83 217 90 217 7 0 26 -5 44 -11z m475 -229 l217 -115 -3
-35 c-3 -35 -4 -36 -223 -152 -233 -124 -229 -123 -253 -66 -11 27 -11 27 121
102 73 41 149 82 169 93 21 10 37 20 37 23 0 3 -70 43 -155 90 -86 47 -162 90
-169 95 -11 8 -11 17 2 48 9 21 21 37 28 35 7 -2 110 -55 229 -118z m-1009 63
c9 -20 14 -37 13 -38 -2 -1 -78 -44 -170 -96 l-166 -93 41 -24 c23 -13 98 -56
167 -94 69 -39 126 -71 128 -73 6 -5 -32 -75 -40 -75 -5 0 -108 52 -229 116
l-220 117 3 34 c3 34 6 36 223 152 121 65 223 116 228 114 4 -3 14 -21 22 -40z"/>
</g>
</svg>
